<?xml version="1.0" encoding="utf-8"?>
<!-- Generator: Adobe Illustrator 23.0.3, SVG Export Plug-In . SVG Version: 6.00 Build 0)  -->
<svg version="1.1" xmlns="http://www.w3.org/2000/svg" xmlns:xlink="http://www.w3.org/1999/xlink" x="0px" y="0px"
	 viewBox="0 0 383.5 124.6" style="enable-background:new 0 0 383.5 124.6;" xml:space="preserve">
<style type="text/css">
	.st0{display:none;}
	.st1{display:inline;fill:#010101;}
	.st2{fill:#FFFFFF;}
</style>
<g id="Layer_2" class="st0">
	<rect x="-2053.1" y="-99.5" class="st1" width="3016" height="288"/>
</g>
<g id="Layer_1">
	<g>
		<g>
			<path class="st2" d="M356.7,64.4l3.7-8.3c0.7-1.6,1-2,1.7-2.2l0-0.6l-3.9,0l0,0.6c1.3,0.3,1.4,0.9,0.8,2.3l-1.5,3.6l-1.9-4.2
				c-0.4-0.9-0.3-1.5,1-1.6l0-0.6l-5.2,0l0,0.6c0.6,0.2,0.9,0.4,1.4,1.5l3.3,7.1l-0.6,1.2c-0.3,0.7-0.6,1.2-0.9,1.5
				c-0.2-0.8-0.7-1.2-1.4-1.2c-0.7,0-1.3,0.5-1.3,1.4c0,0.9,0.8,1.6,1.6,1.6C354.9,67.1,355.7,66.5,356.7,64.4 M351.4,61.9l-0.3-0.6
				c-0.5,0.2-1,0.4-1.4,0.4c-0.9,0-1.2-0.5-1.2-1.1l0-6l2.5,0l0-1.1l-2.5,0l0-1.8l-0.4,0l-3.6,2.3l0,0.6l1.4,0l0,6.5
				c0,1.3,0.7,2,2.2,2C349.3,63,350.4,62.6,351.4,61.9 M343.8,62.2c-1.2-0.2-1.4-0.4-1.4-1.5l0-7.6l-1,0l-2.9,1.9l0,0.4l1.4,0l0,5.3
				c0,1.1-0.2,1.3-1.4,1.5l0,0.6l5.3,0L343.8,62.2z M341,51.6c0.8,0,1.5-0.7,1.5-1.5c0-0.8-0.6-1.4-1.4-1.4c-0.9,0-1.5,0.7-1.5,1.5
				C339.6,51,340.2,51.6,341,51.6 M337.6,59.9c0-1.8-1.5-2.4-3-2.9c-1.4-0.5-2.4-0.7-2.4-1.8c0-0.6,0.4-1.1,1.2-1.1
				c1,0,1.9,0.6,3,1.8l0.5-0.2l-0.8-2.5l-0.3,0l-0.4,0.3c-0.6-0.2-1.2-0.4-1.9-0.4c-2.1,0-3.5,1.2-3.5,3c0,1.8,1.5,2.4,3,2.8
				c1.4,0.5,2.4,0.7,2.4,1.8c0,0.7-0.5,1.2-1.4,1.2c-1.3,0-2.3-0.9-3.6-2.4l-0.5,0.2l0.8,3.1l0.3,0l0.6-0.4c0.7,0.3,1.4,0.5,2.2,0.5
				C335.9,63,337.6,61.8,337.6,59.9 M327.2,62.2c-1.3-0.2-1.5-0.5-1.5-1.7l0-4.1c0.4-0.7,0.8-1.2,1.2-1.6c0,0.8,0.5,1.3,1.2,1.3
				c0.7,0,1.3-0.5,1.3-1.6c0-0.9-0.5-1.4-1.4-1.4c-1,0-1.7,0.8-2.4,2l0-2l-0.9,0l-2.9,1.9l0,0.4l1.4,0l0,5.3c0,1.1-0.2,1.4-1.3,1.5
				l0,0.6l5.3,0L327.2,62.2z M314.8,56.8c0-1.6,0.7-2.6,2-2.6c0.9,0,1.5,0.7,1.7,1.9l-3.7,1.3C314.8,57.3,314.8,57.1,314.8,56.8
				 M321,61.1l-0.5-0.4c-0.5,0.6-1.3,1-2.3,1c-1.8,0-2.9-1.4-3.2-3.2l5.9-2c-0.1-2.1-1.7-3.2-3.6-3.2c-2.8,0-4.8,2.2-4.8,5
				c0,2.7,1.8,4.8,4.8,4.8C319.2,63,320.3,62.2,321,61.1 M310.6,56.2c0.7-1.6,1-2,1.7-2.2l0-0.6l-3.9,0l0,0.6
				c1.3,0.3,1.4,0.9,0.8,2.3l-1.5,3.6l-1.9-4.2c-0.4-0.9-0.3-1.5,1-1.6l0-0.6l-5.2,0l0,0.6c0.6,0.2,0.9,0.4,1.4,1.5l3.4,7.3l1,0
				L310.6,56.2z M301.6,62.3c-1.2-0.2-1.4-0.4-1.4-1.5l0-7.6l-1,0l-2.9,1.9l0,0.4l1.4,0l0,5.3c0,1.1-0.2,1.3-1.4,1.5l0,0.6l5.3,0
				L301.6,62.3z M298.7,51.7c0.8,0,1.5-0.7,1.5-1.5c0-0.8-0.6-1.4-1.4-1.4c-0.9,0-1.5,0.7-1.5,1.5C297.4,51,297.9,51.7,298.7,51.7
				 M288.7,62.3c-1.1-0.2-1.3-0.4-1.3-1.5l0-4.6c1-0.9,1.8-1.3,2.5-1.3c1,0,1.2,0.5,1.3,1.4l0,4.5c0,1.1-0.2,1.4-1.3,1.5l0,0.6
				l5.1,0l0-0.6c-1.1-0.2-1.3-0.4-1.3-1.5l0-4.7c0-1.6-0.7-2.7-2.7-2.7c-1.2,0-2.4,0.8-3.6,1.8l0-1.9l-0.9,0l-2.9,1.9l0,0.4l1.4,0
				l0,5.3c0,1.1-0.2,1.4-1.3,1.5l0,0.6l5.1,0L288.7,62.3z M267.1,50.7l0,5.9c0,3.8,2,6.5,7.1,6.5c5.1,0,7.1-2.7,7-6.5l0-4.8
				c0-2.3,0.6-2.9,1.8-3.2l0-0.6l-4.8,0l0,0.6c1.1,0.3,1.8,0.9,1.8,3.2l0,4.8c0,3.4-1.8,4.9-5.1,4.9c-3.3,0-5.1-1.5-5.1-4.9l0-6
				c0-1.5,0.4-1.8,1.7-1.9l0-0.7l-6,0l0,0.7C266.7,48.9,267.1,49.2,267.1,50.7"/>
			<path class="st2" d="M251.2,62.4c-1.1-0.2-1.3-0.4-1.3-1.5l0-4.6c1-0.9,1.8-1.3,2.5-1.3c1,0,1.2,0.5,1.3,1.4l0,4.5
				c0,1.1-0.2,1.4-1.3,1.5l0,0.6l5.1,0l0-0.6c-1.1-0.2-1.3-0.4-1.3-1.5l0-4.7c0-1.6-0.7-2.7-2.7-2.7c-1.2,0-2.4,0.8-3.6,1.8l0-1.9
				l-0.9,0l-2.9,1.9l0,0.4l1.4,0l0,5.3c0,1.1-0.2,1.4-1.3,1.5l0,0.6l5.1,0L251.2,62.4z M243.4,62.4c-1.3-0.2-1.5-0.5-1.5-1.7l0-4.1
				c0.4-0.7,0.8-1.2,1.2-1.6c0,0.8,0.5,1.3,1.2,1.3c0.7,0,1.3-0.5,1.3-1.6c0-0.9-0.5-1.4-1.4-1.4c-1,0-1.7,0.8-2.4,2l0-2l-0.9,0
				l-2.9,1.9l0,0.4l1.4,0l0,5.3c0,1.1-0.2,1.4-1.3,1.5l0,0.6l5.3,0L243.4,62.4z M230.9,57c0-1.6,0.7-2.6,2-2.6
				c0.9,0,1.5,0.7,1.7,1.9l-3.7,1.3C230.9,57.4,230.9,57.2,230.9,57 M237.1,61.2l-0.5-0.4c-0.5,0.6-1.3,1-2.3,1
				c-1.8,0-2.9-1.4-3.2-3.2l5.9-2c-0.1-2.1-1.7-3.2-3.6-3.2c-2.8,0-4.8,2.2-4.8,5c0,2.7,1.8,4.8,4.8,4.8
				C235.3,63.2,236.5,62.4,237.1,61.2 M228,62.1l-0.3-0.6c-0.5,0.2-1,0.4-1.4,0.4c-0.9,0-1.2-0.5-1.2-1.1l0-6l2.5,0l0-1.1l-2.5,0
				l0-1.8l-0.4,0l-3.6,2.3l0,0.6l1.4,0l0,6.5c0,1.3,0.7,2,2.2,2C225.9,63.2,227,62.8,228,62.1 M220.5,60.1c0-1.8-1.5-2.4-3-2.9
				c-1.4-0.5-2.4-0.7-2.4-1.8c0-0.6,0.4-1.1,1.2-1.1c1,0,1.9,0.6,3,1.8l0.5-0.2l-0.8-2.5l-0.3,0l-0.4,0.3c-0.6-0.2-1.2-0.4-1.9-0.4
				c-2.1,0-3.5,1.2-3.5,3c0,1.8,1.5,2.4,3,2.8c1.4,0.5,2.4,0.7,2.4,1.8c0,0.7-0.5,1.2-1.4,1.2c-1.3,0-2.3-0.9-3.6-2.4l-0.5,0.2
				l0.8,3.1l0.3,0l0.6-0.4c0.7,0.3,1.4,0.5,2.2,0.5C218.8,63.2,220.5,62,220.5,60.1 M205.2,60.5c0-1,0.5-1.5,2.8-2.1l0,2.9
				c-0.6,0.4-1,0.6-1.5,0.6C205.7,61.9,205.2,61.5,205.2,60.5 M209.6,63.2c0.9,0,1.8-0.4,2.4-0.8l-0.2-0.6c-1,0.2-1.3,0-1.3-0.6
				l0-5.3c0-1.6-0.7-2.4-2.9-2.4c-2.5,0-4.4,1.4-4.4,2.6c0,0.6,0.4,1.1,1.1,1.1c0.8,0,1.2-0.5,1.3-1.1c0.1-0.6-0.1-1.1-0.4-1.3
				c0.5-0.2,1-0.4,1.5-0.4c0.9,0,1.3,0.3,1.3,1.1l0,2c-3.5,0.9-5.2,1.7-5.2,3.5c0,1.4,0.9,2.2,2.4,2.2c0.9,0,2-0.4,2.9-1.1
				C208.3,62.8,208.7,63.2,209.6,63.2 M195.5,57.1c0-1.6,0.7-2.6,2-2.6c0.9,0,1.5,0.7,1.7,1.9l-3.7,1.3
				C195.5,57.5,195.5,57.3,195.5,57.1 M201.7,61.3l-0.5-0.4c-0.5,0.6-1.3,1-2.3,1c-1.8,0-2.9-1.4-3.2-3.2l5.9-2
				c-0.1-2.1-1.7-3.2-3.6-3.2c-2.8,0-4.8,2.2-4.8,5c0,2.7,1.8,4.8,4.8,4.8C199.9,63.3,201.1,62.4,201.7,61.3 M186,62.5
				c-1.1-0.2-1.3-0.4-1.3-1.5l0-4.6c1-0.9,1.7-1.3,2.5-1.3c1,0,1.2,0.5,1.3,1.4l0,4.5c0,1.1-0.2,1.4-1.3,1.5l0,0.6l5.1,0l0-0.6
				c-1.1-0.2-1.3-0.4-1.3-1.5l0-4.7c0-1.6-0.7-2.7-2.7-2.7c-1.2,0-2.4,0.7-3.6,1.7l0-7.9l-0.7,0l-3.2,2.1l0,0.4l1.4,0l0,11.1
				c0,1.1-0.2,1.4-1.3,1.5l0,0.6l5.1,0L186,62.5z M180.3,62.2l-0.3-0.6c-0.5,0.2-1,0.4-1.4,0.4c-0.9,0-1.2-0.5-1.2-1.1l0-6l2.5,0
				l0-1.1l-2.5,0l0-1.8l-0.4,0l-3.6,2.3l0,0.6l1.4,0l0,6.5c0,1.3,0.7,2,2.2,2C178.2,63.3,179.3,62.9,180.3,62.2 M170.6,62.5
				c-1.3-0.2-1.5-0.5-1.5-1.7l0-4.1c0.4-0.7,0.8-1.2,1.2-1.6c0,0.8,0.5,1.3,1.2,1.3c0.7,0,1.3-0.5,1.3-1.6c0-0.9-0.5-1.4-1.4-1.4
				c-1,0-1.7,0.8-2.4,2l0-2l-0.9,0l-2.9,1.9l0,0.4l1.4,0l0,5.3c0,1.1-0.2,1.4-1.3,1.5l0,0.6l5.3,0L170.6,62.5z M156.2,57.4
				c0-1.8,0.8-2.9,2.4-2.9c2.1,0,2.7,2.6,2.7,4.9c0,1.8-0.8,2.9-2.4,2.9C156.9,62.4,156.2,59.8,156.2,57.4 M163.8,58.3
				c0-2.6-1.8-4.8-4.9-4.8c-3.2,0-5.1,2.3-5.1,5c0,2.6,1.8,4.8,4.9,4.8C161.9,63.3,163.8,61,163.8,58.3 M150.9,52.1
				c0-2.3,0.6-2.9,1.8-3.2l0-0.6l-4.8,0l0,0.6c1.1,0.3,1.8,0.9,1.8,3.2l0,7l-10.1-10.2c-0.6-0.6-0.8-0.6-1.1-0.6l-3.7,0l0,0.6
				c0.8,0.1,1.3,0.4,2.2,1.3c0.3,0.3,0.6,0.6,0.6,1.2l0,7.9c0,2.3-0.6,2.9-1.8,3.2l0,0.6l4.8,0l0-0.6c-1.1-0.3-1.8-0.9-1.8-3.2
				l0-7.5l11.4,11.4l0.8,0L150.9,52.1z"/>
		</g>
		<g>
			<path class="st2" d="M141.3,95.8h9.5v4.8h-15.1V78.2h5.6V95.8z"/>
			<path class="st2" d="M158.1,78.3c0,1.6-1.4,2.9-3.1,2.9c-1.6,0-3.1-1.3-3.1-2.9s1.4-2.9,3.1-2.9
				C156.7,75.4,158.1,76.7,158.1,78.3z M157.7,100.6h-5.4V83.5h5.4V100.6z"/>
			<path class="st2" d="M166.2,85c1.2-1.3,2.8-2,4.6-2c4.5,0,7.6,3.7,7.6,9.1c0,5.4-3.2,9-7.6,9c-2.2,0-3.7-0.8-4.8-2v1.6h-5.2V78.2
				h5.4V85z M165.9,92.1c0,3.3,1.4,4.8,3.4,4.8c2.2,0,3.5-1.7,3.5-4.8c0-3.3-1.3-4.9-3.4-4.9C167.2,87.2,165.9,88.7,165.9,92.1z"/>
			<path class="st2" d="M191.8,83.1v5.1c-0.6,0-0.8,0-1.1,0c-2.6,0-4.6,1.1-4.6,5.8v6.7h-5.4V83.5h5.2v2.8c1.2-2.4,2.8-3.2,4.6-3.2
				C190.9,83,191.3,83,191.8,83.1z"/>
			<path class="st2" d="M208.3,88.4v8.4c0,1.4,0.1,2.6,0.6,3.8h-5.2c-0.3-0.5-0.5-1.1-0.6-1.7c-1.2,1.6-2.9,2.1-4.9,2.1
				c-3.6,0-5.7-2.2-5.7-5.2c0-3.3,2-5.2,7.2-5.9l3.2-0.4v-0.8c0-1.5-0.4-2.1-2.1-2.1c-1.6,0-2.3,0.6-2.3,2h-5.3
				c0.1-3.7,2.9-5.6,7.7-5.6C206.2,83,208.3,85,208.3,88.4z M201,93c-2.2,0.3-3,1-3,2.2c0,1.1,0.7,1.8,2,1.8c1.7,0,3-1.2,3-2.8v-1.5
				L201,93z"/>
			<path class="st2" d="M222.4,83.1v5.1c-0.6,0-0.8,0-1.1,0c-2.6,0-4.6,1.1-4.6,5.8v6.7h-5.4V83.5h5.2v2.8c1.2-2.4,2.8-3.2,4.6-3.2
				C221.6,83,222,83,222.4,83.1z"/>
			<path class="st2" d="M235.5,101c-1,3.5-2.5,5.8-7.2,5.8c-1.1,0-1.9-0.1-2.6-0.3v-3.6c0.9,0.1,1.2,0.1,1.6,0.1
				c2.3,0,2.9-0.4,3.2-2.3h-2.1l-5.5-17.1h6.1l2.9,13.4l2.7-13.4h5.9L235.5,101z"/>
		</g>
		<path class="st2" d="M117.2,40.7c0-13.7,4.6-18.2,13.8-21.7v-2.3h-30.3V19c9.2,3.5,13.8,8,13.8,21.7V81L50.5,19.7
			c-2.9-2.7-3.7-3-5.6-3H20.8V19c5.3,0.6,8.4,2,16.1,9.5l2.9,2.8v45.9c0,13.7-4.6,18.2-13.8,21.7v2.3h30.3v-2.3
			c-9.2-3.5-13.8-8-13.8-21.7V33.4l72.5,68.3h2.3V40.7z"/>
	</g>
</g>
</svg>
